# xmcd
#
# Track frame offsets: 
#        150
#        11259
#        23082
#        35143
#        47772
#        58258
#        67838
#        78276
#        89656
#        111473
#        122874
#        135836
#        145322
#        156347
#        167408
#        177923
#        187969
#        197716
#        210259
#        218963
#
# Disc length: 3061 seconds
#
# Revision: 0
# Processed by: cddbd v1.5.2PL0 Copyright (c) Steve Scherf et al.
# Submitted via: ExactAudioCopy v0.99pb5
#
DISCID=160bf314
DTITLE=Various Artist - Country and Western Hits And Rarities CD03
DYEAR=1900
DGENRE=
TTITLE0=Marty Robbins - Singing The Blues
TTITLE1=Tennessee Ernie Ford - Sixteen Tons
TTITLE2=Don Gibson - I Can't Stop Loving You
TTITLE3=Skeets Mcdonald - Don't Let The Stars Get In Your Eyes
TTITLE4=Johnny Cash - There You Go
TTITLE5=Louvin Brothers - I Don't Believe You Met My Baby
TTITLE6=Johnny Horton - I'm Ready If You're Willing
TTITLE7=Sonny James - Young Love
TTITLE8=The Everly Brothers - Lightnin' Express
TTITLE9=Marvin Rainwater - Half-Breed
TTITLE10=Jim Reeves - Bimbo
TTITLE11=Webb Pierce - The Jailhouse Now
TTITLE12=Mitchell Torok - Caribbean
TTITLE13=Marty Robbins - Kaw-Liga
TTITLE14=Hank Thompson - Wake Up Irene
TTITLE15=Johnny Cash - Ballad Of A Teenage Queen
TTITLE16=Johnny Duncan and His Blue Grass Boys - Rockabilly Baby
TTITLE17=Johnny Horton - All For The Love Of A Girl
TTITLE18=Johnny and Jack - Oh Baby Mine
TTITLE19=Don Gibson - Who Cares
EXTD=
EXTT0=
EXTT1=
EXTT2=
EXTT3=
EXTT4=
EXTT5=
EXTT6=
EXTT7=
EXTT8=
EXTT9=
EXTT10=
EXTT11=
EXTT12=
EXTT13=
EXTT14=
EXTT15=
EXTT16=
EXTT17=
EXTT18=
EXTT19=
PLAYORDER=
